<svg width="22rem" height="22rem" viewBox="0 0 22 22" fill="none" xmlns="http://www.w3.org/2000/svg">
<g clip-path="url(#clip0_294_329)">
<path d="M8 1.7485e-07V4H4L4 0L8 1.7485e-07Z" fill="black"/>
<path d="M4 14V18H2.38419e-07L4.13264e-07 14H4Z" fill="black"/>
<path d="M22 4V8H18V4L22 4Z" fill="black"/>
<path d="M18 18V22H14V18H18Z" fill="black"/>
<path d="M22 14V18H14V14H22Z" fill="black"/>
<path d="M8 18V22H0L2.38419e-07 18H8Z" fill="black"/>
<path d="M8 4V8L0 8L1.74846e-07 4L8 4Z" fill="black"/>
<path d="M22 3.49691e-07V4L14 4V0L22 3.49691e-07Z" fill="black"/>
</g>
<defs>
<clipPath id="clip0_294_329">
<rect width="22" height="22" fill="white"/>
</clipPath>
</defs>
</svg>
