<svg width="22rem" height="22rem" viewBox="0 0 22 22" fill="none" xmlns="http://www.w3.org/2000/svg">
<g clip-path="url(#clip0_294_351)">
<path d="M8 1.74846e-07V4H4V0L8 1.74846e-07Z" fill="black"/>
<path d="M18 1.74846e-07V4H14V0L18 1.74846e-07Z" fill="black"/>
<path d="M8 18V22H4V18H8Z" fill="black"/>
<path d="M18 18V22H14V18H18Z" fill="black"/>
<path d="M22 14V18H14V14H22Z" fill="black"/>
<path d="M22 4V8H14V4H22Z" fill="black"/>
<path d="M8 4V8H0L1.74846e-07 4L8 4Z" fill="black"/>
<path d="M8 14V18H0L1.74846e-07 14H8Z" fill="black"/>
</g>
<defs>
<clipPath id="clip0_294_351">
<rect width="22" height="22" fill="white"/>
</clipPath>
</defs>
</svg>
