<svg width="22rem" height="22rem" viewBox="0 0 22 22" fill="none" xmlns="http://www.w3.org/2000/svg">
<path d="M8 1.74846e-07V4H4V0L8 1.74846e-07Z" fill="black"/>
<path d="M22 14V18H18V14H22Z" fill="black"/>
<path d="M18 1.74846e-07V4H14V0L18 1.74846e-07Z" fill="black"/>
<path d="M22 4V8H18V4H22Z" fill="black"/>
<path d="M4 14L4 18H0L1.74846e-07 14H4Z" fill="black"/>
<path d="M8 18V22H4L4 18H8Z" fill="black"/>
<path d="M4 4L4 8H0L1.74846e-07 4H4Z" fill="black"/>
<path d="M18 18V22H14V18H18Z" fill="black"/>
</svg>
